<?xml version="1.0" encoding="utf-8"?>
<!-- Generator: Adobe Illustrator 24.0.0, SVG Export Plug-In . SVG Version: 6.00 Build 0)  -->
<svg version="1.1" id="图层_1" xmlns="http://www.w3.org/2000/svg" xmlns:xlink="http://www.w3.org/1999/xlink" x="0px" y="0px"
	 viewBox="0 0 1024 1024" style="enable-background:new 0 0 1024 1024;" xml:space="preserve">
<style type="text/css">
	.st0{fill:#002FA7;}
	.st1{fill:#E94434;}
</style>
<g>
	<g>
		<path class="st0" d="M342.4,571.4l110.2,110.2c10.1,10.1,10.1,26.6,0,36.7L342.4,828.5c-10.1,10.1-26.6,10.1-36.7,0L195.5,718.3
			c-10.1-10.1-10.1-26.6,0-36.7l110.2-110.2C315.8,561.3,332.3,561.3,342.4,571.4z"/>
		<path class="st1" d="M718.3,195.5l110.2,110.2c10.1,10.1,10.1,26.6,0,36.7L718.3,452.6c-10.1,10.1-26.6,10.1-36.7,0L571.4,342.4
			c-10.1-10.1-10.1-26.6,0-36.7l110.2-110.2C691.7,185.4,708.2,185.4,718.3,195.5z"/>
		<path class="st1" d="M452.9,342.7L342.7,452.9c-10.1,10.1-26.6,10.1-36.7,0L195.8,342.7c-10.1-10.1-10.1-26.6,0-36.7L306,195.8
			c10.1-10.1,26.6-10.1,36.7,0L452.9,306C463,316.1,463,332.5,452.9,342.7z"/>
		<path class="st0" d="M828.9,718.7L718.7,828.9c-10.1,10.1-26.6,10.1-36.7,0L571.8,718.7c-10.1-10.1-10.1-26.6,0-36.7L682,571.8
			c10.1-10.1,26.6-10.1,36.7,0L828.9,682C839,692.1,839,708.6,828.9,718.7z"/>
		<path class="st0" d="M640.6,530.3L530.3,640.6c-10.1,10.1-26.6,10.1-36.7,0L383.4,530.3c-10.1-10.1-10.1-26.6,0-36.7l110.2-110.2
			c10.1-10.1,26.6-10.1,36.7,0l110.2,110.2C650.7,503.8,650.7,520.2,640.6,530.3z"/>
		<path class="st0" d="M154.5,383.4l110.2,110.2c10.1,10.1,10.1,26.6,0,36.7L154.5,640.6c-10.1,10.1-26.6,10.1-36.7,0L7.6,530.3
			c-10.1-10.1-10.1-26.6,0-36.7l110.2-110.2C127.9,373.3,144.4,373.3,154.5,383.4z"/>
		<path class="st0" d="M906.2,383.4l110.2,110.2c10.1,10.1,10.1,26.6,0,36.7L906.2,640.6c-10.1,10.1-26.6,10.1-36.7,0L759.3,530.3
			c-10.1-10.1-10.1-26.6,0-36.7l110.2-110.2C879.6,373.3,896.1,373.3,906.2,383.4z"/>
		<path class="st1" d="M640.6,154.5L530.3,264.7c-10.1,10.1-26.6,10.1-36.7,0L383.4,154.5c-10.1-10.1-10.1-26.6,0-36.7L493.7,7.6
			c10.1-10.1,26.6-10.1,36.7,0l110.2,110.2C650.7,127.9,650.7,144.4,640.6,154.5z"/>
		<path class="st1" d="M640.6,906.2l-110.2,110.2c-10.1,10.1-26.6,10.1-36.7,0L383.4,906.2c-10.1-10.1-10.1-26.6,0-36.7l110.2-110.2
			c10.1-10.1,26.6-10.1,36.7,0l110.2,110.2C650.7,879.6,650.7,896.1,640.6,906.2z"/>
	</g>
</g>
</svg>
